<svg xmlns="http://www.w3.org/2000/svg" xmlns:xlink="http://www.w3.org/1999/xlink" width="80pt" height="512pt" viewBox="0.00 0.00 80.00 512.00">
<g id="graph0" class="graph" transform="scale(1 1) rotate(0) translate(4 508)">
<title>G</title>
<polygon fill="white" stroke="none" points="-4,4 -4,-508 76,-508 76,4 -4,4"/>
<!-- input_0 -->
<g id="node1" class="node">
<title>input_0</title>
<text xml:space="preserve" text-anchor="middle" x="36" y="-463.8" font-family="Times,serif" font-size="14.00">input_0</text>
</g>
<!-- tail_0 -->
<g id="node2" class="node">
<title>tail_0</title>
<polygon fill="none" stroke="black" points="72,-396 0,-396 0,-324 72,-324 72,-396"/>
<text xml:space="preserve" text-anchor="middle" x="36" y="-355.8" font-family="Times,serif" font-size="14.00">tail_0</text>
</g>
<!-- input_0&#45;&gt;tail_0 -->
<g id="edge1" class="edge">
<title>input_0-&gt;tail_0</title>
<path fill="none" stroke="black" d="M36,-432.29C36,-424.41 36,-415.92 36,-407.63"/>
<polygon fill="black" stroke="black" points="39.5,-407.66 36,-397.66 32.5,-407.66 39.5,-407.66"/>
</g>
<!-- tail_1 -->
<g id="node3" class="node">
<title>tail_1</title>
<polygon fill="none" stroke="black" points="72,-288 0,-288 0,-216 72,-216 72,-288"/>
<text xml:space="preserve" text-anchor="middle" x="36" y="-247.8" font-family="Times,serif" font-size="14.00">tail_1</text>
</g>
<!-- tail_0&#45;&gt;tail_1 -->
<g id="edge2" class="edge">
<title>tail_0-&gt;tail_1</title>
<path fill="none" stroke="black" d="M36,-323.7C36,-315.93 36,-307.57 36,-299.43"/>
<polygon fill="black" stroke="black" points="39.5,-299.66 36,-289.66 32.5,-299.66 39.5,-299.66"/>
</g>
<!-- tail_2 -->
<g id="node4" class="node">
<title>tail_2</title>
<polygon fill="none" stroke="black" points="72,-180 0,-180 0,-108 72,-108 72,-180"/>
<text xml:space="preserve" text-anchor="middle" x="36" y="-139.8" font-family="Times,serif" font-size="14.00">tail_2</text>
</g>
<!-- tail_1&#45;&gt;tail_2 -->
<g id="edge3" class="edge">
<title>tail_1-&gt;tail_2</title>
<path fill="none" stroke="black" d="M36,-215.7C36,-207.93 36,-199.57 36,-191.43"/>
<polygon fill="black" stroke="black" points="39.5,-191.66 36,-181.66 32.5,-191.66 39.5,-191.66"/>
</g>
<!-- head_0 -->
<g id="node5" class="node">
<title>head_0</title>
<polygon fill="none" stroke="black" points="72,-72 0,-72 0,0 72,0 72,-72"/>
<text xml:space="preserve" text-anchor="middle" x="36" y="-31.8" font-family="Times,serif" font-size="14.00">head_0</text>
</g>
<!-- tail_2&#45;&gt;head_0 -->
<g id="edge4" class="edge">
<title>tail_2-&gt;head_0</title>
<path fill="none" stroke="black" d="M36,-107.7C36,-99.93 36,-91.57 36,-83.43"/>
<polygon fill="black" stroke="black" points="39.5,-83.66 36,-73.66 32.5,-83.66 39.5,-83.66"/>
</g>
</g>
</svg>