<svg xmlns="http://www.w3.org/2000/svg" xmlns:xlink="http://www.w3.org/1999/xlink" width="201pt" height="332pt" viewBox="0.00 0.00 201.00 332.00">
<g id="graph0" class="graph" transform="scale(1 1) rotate(0) translate(4 328)">
<title>G</title>
<polygon fill="white" stroke="none" points="-4,4 -4,-328 196.78,-328 196.78,4 -4,4"/>
<!-- append_0 -->
<g id="node1" class="node">
<title>append_0</title>
<ellipse fill="none" stroke="black" cx="125.39" cy="-234" rx="48.58" ry="18"/>
<text xml:space="preserve" text-anchor="middle" x="125.39" y="-229.8" font-family="Times,serif" font-size="14.00">append_0</text>
</g>
<!-- append_1 -->
<g id="node2" class="node">
<title>append_1</title>
<ellipse fill="none" stroke="black" cx="77.39" cy="-162" rx="48.58" ry="18"/>
<text xml:space="preserve" text-anchor="middle" x="77.39" y="-157.8" font-family="Times,serif" font-size="14.00">append_1</text>
</g>
<!-- append_0&#45;&gt;append_1 -->
<g id="edge1" class="edge">
<title>append_0-&gt;append_1</title>
<path fill="none" stroke="black" d="M113.77,-216.05C108.23,-207.97 101.47,-198.12 95.29,-189.11"/>
<polygon fill="black" stroke="black" points="98.3,-187.31 89.76,-181.04 92.53,-191.26 98.3,-187.31"/>
</g>
<!-- flatten -->
<g id="node3" class="node">
<title>flatten</title>
<ellipse fill="none" stroke="black" cx="77.39" cy="-90" rx="35.7" ry="18"/>
<text xml:space="preserve" text-anchor="middle" x="77.39" y="-85.8" font-family="Times,serif" font-size="14.00">flatten</text>
</g>
<!-- append_1&#45;&gt;flatten -->
<g id="edge2" class="edge">
<title>append_1-&gt;flatten</title>
<path fill="none" stroke="black" d="M77.39,-143.7C77.39,-136.41 77.39,-127.73 77.39,-119.54"/>
<polygon fill="black" stroke="black" points="80.89,-119.62 77.39,-109.62 73.89,-119.62 80.89,-119.62"/>
</g>
<!-- length -->
<g id="node4" class="node">
<title>length</title>
<ellipse fill="none" stroke="black" cx="77.39" cy="-18" rx="35.17" ry="18"/>
<text xml:space="preserve" text-anchor="middle" x="77.39" y="-13.8" font-family="Times,serif" font-size="14.00">length</text>
</g>
<!-- flatten&#45;&gt;length -->
<g id="edge3" class="edge">
<title>flatten-&gt;length</title>
<path fill="none" stroke="black" d="M77.39,-71.7C77.39,-64.41 77.39,-55.73 77.39,-47.54"/>
<polygon fill="black" stroke="black" points="80.89,-47.62 77.39,-37.62 73.89,-47.62 80.89,-47.62"/>
</g>
<!-- input_0 -->
<g id="node5" class="node">
<title>input_0</title>
<text xml:space="preserve" text-anchor="middle" x="86.39" y="-301.8" font-family="Times,serif" font-size="14.00">input_0</text>
</g>
<!-- input_0&#45;&gt;append_0 -->
<g id="edge4" class="edge">
<title>input_0-&gt;append_0</title>
<path fill="none" stroke="black" d="M95.83,-288.05C100.24,-280.14 105.59,-270.54 110.52,-261.69"/>
<polygon fill="black" stroke="black" points="113.49,-263.55 115.3,-253.11 107.37,-260.14 113.49,-263.55"/>
</g>
<!-- input_1 -->
<g id="node6" class="node">
<title>input_1</title>
<text xml:space="preserve" text-anchor="middle" x="163.39" y="-301.8" font-family="Times,serif" font-size="14.00">input_1</text>
</g>
<!-- input_1&#45;&gt;append_0 -->
<g id="edge5" class="edge">
<title>input_1-&gt;append_0</title>
<path fill="none" stroke="black" d="M154.19,-288.05C149.9,-280.14 144.68,-270.54 139.88,-261.69"/>
<polygon fill="black" stroke="black" points="143.07,-260.24 135.23,-253.12 136.92,-263.58 143.07,-260.24"/>
</g>
<!-- input_2 -->
<g id="node7" class="node">
<title>input_2</title>
<text xml:space="preserve" text-anchor="middle" x="29.39" y="-229.8" font-family="Times,serif" font-size="14.00">input_2</text>
</g>
<!-- input_2&#45;&gt;append_1 -->
<g id="edge6" class="edge">
<title>input_2-&gt;append_1</title>
<path fill="none" stroke="black" d="M41.01,-216.05C46.55,-207.97 53.31,-198.12 59.48,-189.11"/>
<polygon fill="black" stroke="black" points="62.25,-191.26 65.02,-181.04 56.48,-187.31 62.25,-191.26"/>
</g>
</g>
</svg>