<svg xmlns="http://www.w3.org/2000/svg" xmlns:xlink="http://www.w3.org/1999/xlink" width="80pt" height="404pt" viewBox="0.00 0.00 80.00 404.00">
<g id="graph0" class="graph" transform="scale(1 1) rotate(0) translate(4 400)">
<title>G</title>
<polygon fill="white" stroke="none" points="-4,4 -4,-400 76,-400 76,4 -4,4"/>
<!-- input_1_list -->
<g id="node1" class="node">
<title>input_1_list</title>
<text xml:space="preserve" text-anchor="middle" x="36" y="-355.8" font-family="Times,serif" font-size="14.00">input_1_list</text>
</g>
<!-- reverse_0 -->
<g id="node3" class="node">
<title>reverse_0</title>
<polygon fill="none" stroke="black" points="72,-288 0,-288 0,-216 72,-216 72,-288"/>
<text xml:space="preserve" text-anchor="middle" x="36" y="-247.8" font-family="Times,serif" font-size="14.00">reverse_0</text>
</g>
<!-- input_1_list&#45;&gt;reverse_0 -->
<g id="edge1" class="edge">
<title>input_1_list-&gt;reverse_0</title>
<path fill="none" stroke="black" d="M36,-324.29C36,-316.41 36,-307.92 36,-299.63"/>
<polygon fill="black" stroke="black" points="39.5,-299.66 36,-289.66 32.5,-299.66 39.5,-299.66"/>
</g>
<!-- output_1_list -->
<g id="node2" class="node">
<title>output_1_list</title>
<text xml:space="preserve" text-anchor="middle" x="36" y="-31.8" font-family="Times,serif" font-size="14.00">output_1_list</text>
</g>
<!-- reverse_1 -->
<g id="node4" class="node">
<title>reverse_1</title>
<polygon fill="none" stroke="black" points="72,-180 0,-180 0,-108 72,-108 72,-180"/>
<text xml:space="preserve" text-anchor="middle" x="36" y="-139.8" font-family="Times,serif" font-size="14.00">reverse_1</text>
</g>
<!-- reverse_0&#45;&gt;reverse_1 -->
<g id="edge2" class="edge">
<title>reverse_0-&gt;reverse_1</title>
<path fill="none" stroke="black" d="M36,-215.7C36,-207.93 36,-199.57 36,-191.43"/>
<polygon fill="black" stroke="black" points="39.5,-191.66 36,-181.66 32.5,-191.66 39.5,-191.66"/>
</g>
<!-- reverse_1&#45;&gt;output_1_list -->
<g id="edge3" class="edge">
<title>reverse_1-&gt;output_1_list</title>
<path fill="none" stroke="black" d="M36,-107.7C36,-99.84 36,-91.4 36,-83.17"/>
<polygon fill="black" stroke="black" points="39.5,-83.3 36,-73.3 32.5,-83.3 39.5,-83.3"/>
</g>
</g>
</svg>