<svg xmlns="http://www.w3.org/2000/svg" xmlns:xlink="http://www.w3.org/1999/xlink" width="170pt" height="728pt" viewBox="0.00 0.00 170.00 728.00">
<g id="graph0" class="graph" transform="scale(1 1) rotate(0) translate(4 724)">
<title>G</title>
<polygon fill="white" stroke="none" points="-4,4 -4,-724 166,-724 166,4 -4,4"/>
<!-- input_1_list -->
<g id="node1" class="node">
<title>input_1_list</title>
<text xml:space="preserve" text-anchor="middle" x="36" y="-679.8" font-family="Times,serif" font-size="14.00">input_1_list</text>
</g>
<!-- reverse_0 -->
<g id="node4" class="node">
<title>reverse_0</title>
<polygon fill="none" stroke="black" points="72,-612 0,-612 0,-540 72,-540 72,-612"/>
<text xml:space="preserve" text-anchor="middle" x="36" y="-571.8" font-family="Times,serif" font-size="14.00">reverse_0</text>
</g>
<!-- input_1_list&#45;&gt;reverse_0 -->
<g id="edge1" class="edge">
<title>input_1_list-&gt;reverse_0</title>
<path fill="none" stroke="black" d="M36,-648.29C36,-640.41 36,-631.92 36,-623.63"/>
<polygon fill="black" stroke="black" points="39.5,-623.66 36,-613.66 32.5,-623.66 39.5,-623.66"/>
</g>
<!-- input_2_nat -->
<g id="node2" class="node">
<title>input_2_nat</title>
<text xml:space="preserve" text-anchor="middle" x="126" y="-463.8" font-family="Times,serif" font-size="14.00">input_2_nat</text>
</g>
<!-- cons -->
<g id="node6" class="node">
<title>cons</title>
<polygon fill="none" stroke="black" points="117,-396 45,-396 45,-324 117,-324 117,-396"/>
<text xml:space="preserve" text-anchor="middle" x="81" y="-355.8" font-family="Times,serif" font-size="14.00">cons</text>
</g>
<!-- input_2_nat&#45;&gt;cons -->
<g id="edge4" class="edge">
<title>input_2_nat-&gt;cons</title>
<path fill="none" stroke="black" d="M111.27,-432.29C107.77,-424.05 103.98,-415.14 100.31,-406.49"/>
<polygon fill="black" stroke="black" points="103.64,-405.38 96.51,-397.54 97.2,-408.12 103.64,-405.38"/>
</g>
<!-- output_1_option_nat -->
<g id="node3" class="node">
<title>output_1_option_nat</title>
<text xml:space="preserve" text-anchor="middle" x="81" y="-31.8" font-family="Times,serif" font-size="14.00">output_1_option_nat</text>
</g>
<!-- tail -->
<g id="node5" class="node">
<title>tail</title>
<polygon fill="none" stroke="black" points="72,-504 0,-504 0,-432 72,-432 72,-504"/>
<text xml:space="preserve" text-anchor="middle" x="36" y="-463.8" font-family="Times,serif" font-size="14.00">tail</text>
</g>
<!-- reverse_0&#45;&gt;tail -->
<g id="edge2" class="edge">
<title>reverse_0-&gt;tail</title>
<path fill="none" stroke="black" d="M36,-539.7C36,-531.93 36,-523.57 36,-515.43"/>
<polygon fill="black" stroke="black" points="39.5,-515.66 36,-505.66 32.5,-515.66 39.5,-515.66"/>
</g>
<!-- tail&#45;&gt;cons -->
<g id="edge3" class="edge">
<title>tail-&gt;cons</title>
<path fill="none" stroke="black" d="M50.98,-431.7C54.4,-423.66 58.08,-415 61.65,-406.59"/>
<polygon fill="black" stroke="black" points="64.8,-408.11 65.49,-397.54 58.36,-405.37 64.8,-408.11"/>
</g>
<!-- reverse -->
<g id="node7" class="node">
<title>reverse</title>
<polygon fill="none" stroke="black" points="117,-288 45,-288 45,-216 117,-216 117,-288"/>
<text xml:space="preserve" text-anchor="middle" x="81" y="-247.8" font-family="Times,serif" font-size="14.00">reverse</text>
</g>
<!-- cons&#45;&gt;reverse -->
<g id="edge5" class="edge">
<title>cons-&gt;reverse</title>
<path fill="none" stroke="black" d="M81,-323.7C81,-315.93 81,-307.57 81,-299.43"/>
<polygon fill="black" stroke="black" points="84.5,-299.66 81,-289.66 77.5,-299.66 84.5,-299.66"/>
</g>
<!-- head -->
<g id="node8" class="node">
<title>head</title>
<polygon fill="none" stroke="black" points="117,-180 45,-180 45,-108 117,-108 117,-180"/>
<text xml:space="preserve" text-anchor="middle" x="81" y="-139.8" font-family="Times,serif" font-size="14.00">head</text>
</g>
<!-- reverse&#45;&gt;head -->
<g id="edge6" class="edge">
<title>reverse-&gt;head</title>
<path fill="none" stroke="black" d="M81,-215.7C81,-207.93 81,-199.57 81,-191.43"/>
<polygon fill="black" stroke="black" points="84.5,-191.66 81,-181.66 77.5,-191.66 84.5,-191.66"/>
</g>
<!-- head&#45;&gt;output_1_option_nat -->
<g id="edge7" class="edge">
<title>head-&gt;output_1_option_nat</title>
<path fill="none" stroke="black" d="M81,-107.7C81,-99.84 81,-91.4 81,-83.17"/>
<polygon fill="black" stroke="black" points="84.5,-83.3 81,-73.3 77.5,-83.3 84.5,-83.3"/>
</g>
</g>
</svg>