<svg xmlns="http://www.w3.org/2000/svg" xmlns:xlink="http://www.w3.org/1999/xlink" width="215pt" height="620pt" viewBox="0.00 0.00 215.00 620.00">
<g id="graph0" class="graph" transform="scale(1 1) rotate(0) translate(4 616)">
<title>G</title>
<polygon fill="white" stroke="none" points="-4,4 -4,-616 211,-616 211,4 -4,4"/>
<!-- input_0_list -->
<g id="node1" class="node">
<title>input_0_list</title>
<text xml:space="preserve" text-anchor="middle" x="36" y="-571.8" font-family="Times,serif" font-size="14.00">input_0_list</text>
</g>
<!-- append -->
<g id="node4" class="node">
<title>append</title>
<polygon fill="none" stroke="black" points="117,-504 45,-504 45,-432 117,-432 117,-504"/>
<text xml:space="preserve" text-anchor="middle" x="81" y="-463.8" font-family="Times,serif" font-size="14.00">append</text>
</g>
<!-- input_0_list&#45;&gt;append -->
<g id="edge1" class="edge">
<title>input_0_list-&gt;append</title>
<path fill="none" stroke="black" d="M50.73,-540.29C54.23,-532.05 58.02,-523.14 61.69,-514.49"/>
<polygon fill="black" stroke="black" points="64.8,-516.12 65.49,-505.54 58.36,-513.38 64.8,-516.12"/>
</g>
<!-- input_1_list -->
<g id="node2" class="node">
<title>input_1_list</title>
<text xml:space="preserve" text-anchor="middle" x="126" y="-571.8" font-family="Times,serif" font-size="14.00">input_1_list</text>
</g>
<!-- input_1_list&#45;&gt;append -->
<g id="edge2" class="edge">
<title>input_1_list-&gt;append</title>
<path fill="none" stroke="black" d="M111.27,-540.29C107.77,-532.05 103.98,-523.14 100.31,-514.49"/>
<polygon fill="black" stroke="black" points="103.64,-513.38 96.51,-505.54 97.2,-516.12 103.64,-513.38"/>
</g>
<!-- input_2_nat -->
<g id="node3" class="node">
<title>input_2_nat</title>
<text xml:space="preserve" text-anchor="middle" x="171" y="-463.8" font-family="Times,serif" font-size="14.00">input_2_nat</text>
</g>
<!-- cons -->
<g id="node5" class="node">
<title>cons</title>
<polygon fill="none" stroke="black" points="162,-396 90,-396 90,-324 162,-324 162,-396"/>
<text xml:space="preserve" text-anchor="middle" x="126" y="-355.8" font-family="Times,serif" font-size="14.00">cons</text>
</g>
<!-- input_2_nat&#45;&gt;cons -->
<g id="edge4" class="edge">
<title>input_2_nat-&gt;cons</title>
<path fill="none" stroke="black" d="M156.27,-432.29C152.77,-424.05 148.98,-415.14 145.31,-406.49"/>
<polygon fill="black" stroke="black" points="148.64,-405.38 141.51,-397.54 142.2,-408.12 148.64,-405.38"/>
</g>
<!-- append&#45;&gt;cons -->
<g id="edge3" class="edge">
<title>append-&gt;cons</title>
<path fill="none" stroke="black" d="M95.98,-431.7C99.4,-423.66 103.08,-415 106.65,-406.59"/>
<polygon fill="black" stroke="black" points="109.8,-408.11 110.49,-397.54 103.36,-405.37 109.8,-408.11"/>
</g>
<!-- tail -->
<g id="node6" class="node">
<title>tail</title>
<polygon fill="none" stroke="black" points="162,-288 90,-288 90,-216 162,-216 162,-288"/>
<text xml:space="preserve" text-anchor="middle" x="126" y="-247.8" font-family="Times,serif" font-size="14.00">tail</text>
</g>
<!-- cons&#45;&gt;tail -->
<g id="edge5" class="edge">
<title>cons-&gt;tail</title>
<path fill="none" stroke="black" d="M126,-323.7C126,-315.93 126,-307.57 126,-299.43"/>
<polygon fill="black" stroke="black" points="129.5,-299.66 126,-289.66 122.5,-299.66 129.5,-299.66"/>
</g>
<!-- reverse -->
<g id="node7" class="node">
<title>reverse</title>
<polygon fill="none" stroke="black" points="162,-180 90,-180 90,-108 162,-108 162,-180"/>
<text xml:space="preserve" text-anchor="middle" x="126" y="-139.8" font-family="Times,serif" font-size="14.00">reverse</text>
</g>
<!-- tail&#45;&gt;reverse -->
<g id="edge6" class="edge">
<title>tail-&gt;reverse</title>
<path fill="none" stroke="black" d="M126,-215.7C126,-207.93 126,-199.57 126,-191.43"/>
<polygon fill="black" stroke="black" points="129.5,-191.66 126,-181.66 122.5,-191.66 129.5,-191.66"/>
</g>
<!-- length -->
<g id="node8" class="node">
<title>length</title>
<polygon fill="none" stroke="black" points="162,-72 90,-72 90,0 162,0 162,-72"/>
<text xml:space="preserve" text-anchor="middle" x="126" y="-31.8" font-family="Times,serif" font-size="14.00">length</text>
</g>
<!-- reverse&#45;&gt;length -->
<g id="edge7" class="edge">
<title>reverse-&gt;length</title>
<path fill="none" stroke="black" d="M126,-107.7C126,-99.93 126,-91.57 126,-83.43"/>
<polygon fill="black" stroke="black" points="129.5,-83.66 126,-73.66 122.5,-83.66 129.5,-83.66"/>
</g>
</g>
</svg>