<svg xmlns="http://www.w3.org/2000/svg" xmlns:xlink="http://www.w3.org/1999/xlink" width="651pt" height="276pt" viewBox="0.00 0.00 651.00 276.00">
<g id="graph0" class="graph" transform="scale(1 1) rotate(0) translate(4 272)">
<title>WordCountU</title>
<polygon fill="white" stroke="none" points="-4,4 -4,-272 646.89,-272 646.89,4 -4,4"/>
<!-- Input -->
<g id="node1" class="node">
<title>Input</title>
<path fill="lightgrey" stroke="black" d="M180.43,-268C180.43,-268 87.61,-268 87.61,-268 81.61,-268 75.61,-262 75.61,-256 75.61,-256 75.61,-244 75.61,-244 75.61,-238 81.61,-232 87.61,-232 87.61,-232 180.43,-232 180.43,-232 186.43,-232 192.43,-238 192.43,-244 192.43,-244 192.43,-256 192.43,-256 192.43,-262 186.43,-268 180.43,-268"/>
<text xml:space="preserve" text-anchor="middle" x="134.02" y="-245.8" font-family="Courier,monospace" font-size="14.00">Input change</text>
</g>
<!-- ToLower -->
<g id="node2" class="node">
<title>ToLower</title>
<path fill="lavender" stroke="black" d="M230.84,-196C230.84,-196 37.2,-196 37.2,-196 31.2,-196 25.2,-190 25.2,-184 25.2,-184 25.2,-172 25.2,-172 25.2,-166 31.2,-160 37.2,-160 37.2,-160 230.84,-160 230.84,-160 236.84,-160 242.84,-166 242.84,-172 242.84,-172 242.84,-184 242.84,-184 242.84,-190 236.84,-196 230.84,-196"/>
<text xml:space="preserve" text-anchor="middle" x="134.02" y="-173.8" font-family="Courier,monospace" font-size="14.00">String::Δto_lowercase()</text>
</g>
<!-- Input&#45;&gt;ToLower -->
<g id="edge1" class="edge">
<title>Input-&gt;ToLower</title>
<path fill="none" stroke="black" d="M134.02,-231.59C134.02,-224.28 134.02,-215.69 134.02,-207.56"/>
<polygon fill="black" stroke="black" points="137.52,-207.68 134.02,-197.68 130.52,-207.68 137.52,-207.68"/>
<text xml:space="preserve" text-anchor="middle" x="122.02" y="-209.5" font-family="Courier,monospace" font-size="15.00" fill="darkblue"> append " "</text>
</g>
<!-- Input&#45;&gt;ToLower -->
<!-- Output -->
<g id="node6" class="node">
<title>Output</title>
<path fill="lightgreen" stroke="black" d="M551.08,-36C551.08,-36 449.86,-36 449.86,-36 443.86,-36 437.86,-30 437.86,-24 437.86,-24 437.86,-12 437.86,-12 437.86,-6 443.86,0 449.86,0 449.86,0 551.08,0 551.08,0 557.08,0 563.08,-6 563.08,-12 563.08,-12 563.08,-24 563.08,-24 563.08,-30 557.08,-36 551.08,-36"/>
<text xml:space="preserve" text-anchor="middle" x="500.47" y="-13.8" font-family="Courier,monospace" font-size="14.00">Result change</text>
</g>
<!-- Input&#45;&gt;Output -->
<!-- Split -->
<g id="node3" class="node">
<title>Split</title>
<path fill="lavender" stroke="black" d="M256.04,-124C256.04,-124 12,-124 12,-124 6,-124 0,-118 0,-112 0,-112 0,-100 0,-100 0,-94 6,-88 12,-88 12,-88 256.04,-88 256.04,-88 262.04,-88 268.04,-94 268.04,-100 268.04,-100 268.04,-112 268.04,-112 268.04,-118 262.04,-124 256.04,-124"/>
<text xml:space="preserve" text-anchor="middle" x="134.02" y="-101.8" font-family="Courier,monospace" font-size="14.00">String::Δsplit(delimiter=" ")</text>
</g>
<!-- ToLower&#45;&gt;Split -->
<g id="edge2" class="edge">
<title>ToLower-&gt;Split</title>
<path fill="none" stroke="black" d="M134.02,-159.59C134.02,-152.28 134.02,-143.69 134.02,-135.56"/>
<polygon fill="black" stroke="black" points="137.52,-135.68 134.02,-125.68 130.52,-135.68 137.52,-135.68"/>
<text xml:space="preserve" text-anchor="middle" x="122.02" y="-137.5" font-family="Courier,monospace" font-size="15.00" fill="darkblue"> append " "</text>
</g>
<!-- ToLower&#45;&gt;Split -->
<!-- Count -->
<g id="node5" class="node">
<title>Count</title>
<path fill="lavender" stroke="black" d="M576.28,-108C576.28,-108 424.66,-108 424.66,-108 418.66,-108 412.66,-102 412.66,-96 412.66,-96 412.66,-84 412.66,-84 412.66,-78 418.66,-72 424.66,-72 424.66,-72 576.28,-72 576.28,-72 582.28,-72 588.28,-78 588.28,-84 588.28,-84 588.28,-96 588.28,-96 588.28,-102 582.28,-108 576.28,-108"/>
<text xml:space="preserve" text-anchor="middle" x="500.47" y="-85.8" font-family="Courier,monospace" font-size="14.00">Iterator::Δcount()</text>
</g>
<!-- ToLower&#45;&gt;Count -->
<!-- FilterEmpty -->
<g id="node4" class="node">
<title>FilterEmpty</title>
<path fill="lavender" stroke="black" d="M630.89,-180C630.89,-180 370.05,-180 370.05,-180 364.05,-180 358.05,-174 358.05,-168 358.05,-168 358.05,-156 358.05,-156 358.05,-150 364.05,-144 370.05,-144 370.05,-144 630.89,-144 630.89,-144 636.89,-144 642.89,-150 642.89,-156 642.89,-156 642.89,-168 642.89,-168 642.89,-174 636.89,-180 630.89,-180"/>
<text xml:space="preserve" text-anchor="middle" x="500.47" y="-157.8" font-family="Courier,monospace" font-size="14.00">Iterator::Δfilter(fn=not_empty)</text>
</g>
<!-- Split&#45;&gt;FilterEmpty -->
<g id="edge3" class="edge">
<title>Split-&gt;FilterEmpty</title>
<path fill="none" stroke="black" d="M215.08,-124.47C237.92,-129.33 262.89,-134.25 286.04,-138 305.53,-141.15 326.09,-144.03 346.44,-146.61"/>
<polygon fill="black" stroke="black" points="345.85,-150.06 356.21,-147.82 346.72,-143.11 345.85,-150.06"/>
<text xml:space="preserve" text-anchor="middle" x="313.05" y="-150.09" font-family="Courier,monospace" font-size="15.00" fill="darkblue"> [" "]</text>
</g>
<!-- Split&#45;&gt;FilterEmpty -->
<!-- FilterEmpty&#45;&gt;Count -->
<g id="edge4" class="edge">
<title>FilterEmpty-&gt;Count</title>
<path fill="none" stroke="black" d="M500.47,-143.59C500.47,-136.28 500.47,-127.69 500.47,-119.56"/>
<polygon fill="black" stroke="black" points="503.97,-119.68 500.47,-109.68 496.97,-119.68 503.97,-119.68"/>
<text xml:space="preserve" text-anchor="middle" x="488.47" y="-121.5" font-family="Courier,monospace" font-size="15.00" fill="darkblue">  append []</text>
</g>
<!-- Count&#45;&gt;FilterEmpty -->
<!-- Count&#45;&gt;Output -->
<g id="edge5" class="edge">
<title>Count-&gt;Output</title>
<path fill="none" stroke="black" d="M500.47,-71.59C500.47,-64.28 500.47,-55.69 500.47,-47.56"/>
<polygon fill="black" stroke="black" points="503.97,-47.68 500.47,-37.68 496.97,-47.68 503.97,-47.68"/>
<text xml:space="preserve" text-anchor="middle" x="488.47" y="-49.5" font-family="Courier,monospace" font-size="15.00" fill="darkblue">      +0</text>
</g>
<!-- Output&#45;&gt;Count -->
</g>
</svg>